<svg xmlns="http://www.w3.org/2000/svg" viewBox="0 0 512 512">
  <defs>
    <linearGradient id="cloud" x1="0" y1="0" x2="1" y2="1">
      <stop offset="0%" stop-color="#7EE0FF"/>
      <stop offset="100%" stop-color="#1E88E5"/>
    </linearGradient>
    <linearGradient id="shield" x1="0" y1="0" x2="0" y2="1">
      <stop offset="0%" stop-color="#1A56C6"/>
      <stop offset="100%" stop-color="#0A2B78"/>
    </linearGradient>
  </defs>

  <path d="M100 310
           C60 310, 60 240, 110 225
           C130 170, 220 150, 260 190
           C310 160, 390 185, 405 240
           C450 255, 440 310, 380 310 Z"
        fill="url(#cloud)"/>

  <path d="M256 170
           L330 210
           L310 330
           L256 380
           L202 330
           L182 210 Z"
        fill="url(#shield)"/>

  <path d="M256 200
           L300 225
           L290 315
           L256 350
           L222 315
           L212 225 Z"
        fill="#2F7BFF"/>

  <rect x="225" y="250" width="62" height="55" rx="10" fill="white"/>

  <path d="M235 250 v-20 a21 21 0 0 1 42 0 v20"
        fill="none" stroke="white" stroke-width="8" stroke-linecap="round"/>

  <circle cx="256" cy="275" r="6" fill="#0A2B78"/>
</svg>
